<svg width="67" height="74" viewBox="0 0 67 74" fill="none" xmlns="http://www.w3.org/2000/svg">
<path opacity="0.91" d="M29.7484 36.5531C28.2105 34.8678 25.085 35.543 22.6409 36.4585C21.1427 37.0197 21.171 38.9815 22.6066 39.6874L33.9453 45.2632C34.4563 45.5145 34.6183 45.851 34.1765 46.2103C31.5748 48.3261 21.746 55.746 22.6177 57.2034C23.6569 58.941 29.3456 57.8004 32.486 55.4659C34.4823 53.9819 35.7479 52.5729 36.5502 51.3829C37.4475 50.0519 39.7355 49.1369 41.0634 50.0387L45.3028 52.9176C45.5278 53.0704 45.7804 53.1758 46.0488 53.2197C47.5045 53.4579 52.4969 54.1403 54.6063 52.7004C55.3846 52.1692 54.8977 51.1375 54.0372 50.7534L42.9585 45.8091C41.6992 45.247 41.3732 43.6091 42.3214 42.6076L49.3824 35.1503C50.5163 33.9527 49.7825 32.0583 48.1356 32.1453C45.9864 32.2589 43.5261 32.6941 42.2685 33.9788C40.6362 35.6462 38.8304 38.3203 37.7607 39.9976C37.2103 40.8605 36.1109 41.2002 35.2188 40.6986C33.7085 39.8494 31.4288 38.3945 29.7484 36.5531Z" fill="#182D47" fill-opacity="0.51"/>
<path opacity="0.91" fill-rule="evenodd" clip-rule="evenodd" d="M9.57889 8.09867L41.6742 2.44762C42.1867 2.35739 42.7141 2.47044 43.1446 2.76277L57.1819 12.2955C57.629 12.5991 57.9342 13.0709 58.028 13.6032L65.7572 57.5014C66.0556 59.1962 65.6486 60.9436 64.6258 62.3592C63.6031 63.7748 62.0482 64.7427 60.3034 65.0499L20.83 72C19.0852 72.3072 17.2933 71.9286 15.8485 70.9474C14.4037 69.9663 13.4244 68.463 13.126 66.7682L4.12512 15.6472C3.82672 13.9524 4.23367 12.205 5.25645 10.7894C6.27923 9.37376 7.83406 8.40588 9.57889 8.09867ZM40.6558 11.2459C40.4643 10.1581 39.4272 9.43149 38.3393 9.62303L12.6737 14.142C11.5859 14.3335 10.8593 15.3707 11.0508 16.4585L19.3581 63.6402C19.5497 64.728 20.5868 65.4546 21.6746 65.263L57.2086 59.0066C58.2964 58.815 59.023 57.7779 58.8315 56.69L52.2118 19.0936C52.0203 18.0058 50.9832 17.2792 49.8953 17.4707L43.9664 18.5146C42.8786 18.7062 41.8414 17.9796 41.6499 16.8917L40.6558 11.2459ZM21.8582 41.1245C20.4226 40.4186 20.3943 38.4568 21.8925 37.8956C24.3365 36.9801 27.4621 36.3049 29 37.9902C30.6803 39.8316 32.9601 41.2865 34.4704 42.1357C35.3625 42.6373 36.4619 42.2976 37.0123 41.4347C38.082 39.7575 39.8878 37.0833 41.52 35.4159C42.7777 34.1312 45.2379 33.696 47.3872 33.5824C49.0341 33.4954 49.7679 35.3898 48.634 36.5874L41.5729 44.0447C40.6247 45.0462 40.9507 46.6842 42.2101 47.2462L53.2888 52.1905C54.1493 52.5746 54.6362 53.6063 53.8579 54.1376C51.7485 55.5774 46.7561 54.895 45.3004 54.6568C45.032 54.6129 44.7794 54.5075 44.5544 54.3547L40.315 51.4758C38.9871 50.574 36.6991 51.489 35.8018 52.82C34.9995 54.01 33.7339 55.419 31.7376 56.903C28.5972 59.2376 22.9085 60.3781 21.8693 58.6405C20.9976 57.1831 30.8264 49.7632 33.4281 47.6474C33.8699 47.2881 33.7079 46.9517 33.1968 46.7004L21.8582 41.1245Z" fill="#76A3DA" fill-opacity="0.63"/>
<path opacity="0.91" fill-rule="evenodd" clip-rule="evenodd" d="M6.57889 8.10846L38.6742 2.45741C39.1867 2.36718 39.7141 2.48023 40.1446 2.77256L54.1819 12.3052C54.629 12.6089 54.9342 13.0806 55.028 13.613L62.7572 57.5112C63.0556 59.206 62.6486 60.9534 61.6258 62.369C60.6031 63.7846 59.0482 64.7525 57.3034 65.0597L17.83 72.0098C16.0852 72.317 14.2933 71.9384 12.8485 70.9572C11.4037 69.9761 10.4244 68.4728 10.126 66.778L1.12512 15.6569C0.826717 13.9622 1.23367 12.2148 2.25645 10.7992C3.27923 9.38355 4.83406 8.41567 6.57889 8.10846ZM37.6558 11.2557C37.4643 10.1679 36.4272 9.44128 35.3393 9.63282L9.67371 14.1518C8.58587 14.3433 7.85928 15.3805 8.05081 16.4683L16.3581 63.6499C16.5497 64.7378 17.5868 65.4644 18.6746 65.2728L54.2086 59.0163C55.2964 58.8248 56.023 57.7877 55.8315 56.6998L49.2118 19.1034C49.0203 18.0155 47.9832 17.289 46.8953 17.4805L40.9664 18.5244C39.8786 18.7159 38.8414 17.9893 38.6499 16.9015L37.6558 11.2557ZM18.8582 41.1343C17.4226 40.4284 17.3943 38.4666 18.8925 37.9054C21.3365 36.9899 24.4621 36.3147 26 38C27.6803 39.8414 29.9601 41.2963 31.4704 42.1455C32.3625 42.647 33.4619 42.3074 34.0123 41.4445C35.082 39.7672 36.8878 37.0931 38.52 35.4257C39.7777 34.141 42.2379 33.7058 44.3872 33.5922C46.0341 33.5052 46.7679 35.3996 45.634 36.5972L38.5729 44.0545C37.6247 45.0559 37.9507 46.6939 39.2101 47.256L50.2888 52.2003C51.1493 52.5844 51.6362 53.6161 50.8579 54.1473C48.7485 55.5872 43.7561 54.9048 42.3004 54.6666C42.032 54.6227 41.7794 54.5173 41.5544 54.3645L37.315 51.4856C35.9871 50.5838 33.6991 51.4988 32.8018 52.8298C31.9995 54.0198 30.7339 55.4288 28.7376 56.9128C25.5972 59.2473 19.9085 60.3879 18.8693 58.6503C17.9976 57.1929 27.8264 49.773 30.4281 47.6572C30.8699 47.2979 30.7079 46.9614 30.1968 46.7101L18.8582 41.1343Z" fill="#E6E6E6" fill-opacity="0.08"/>
</svg>
